<?xml version="1.0" encoding="UTF-8" standalone="no"?>
<!DOCTYPE svg PUBLIC "-//W3C//DTD SVG 1.1//EN"
 "http://www.w3.org/Graphics/SVG/1.1/DTD/svg11.dtd">
<!-- Generated by graphviz version 9.0.0 (20230911.1827)
 -->
<!-- Pages: 1 -->
<svg width="1174pt" height="918pt"
 viewBox="0.00 0.00 1173.83 917.95" xmlns="http://www.w3.org/2000/svg" xmlns:xlink="http://www.w3.org/1999/xlink">
<g id="graph0" class="graph" transform="scale(1 1) rotate(0) translate(4 913.95)">
<polygon fill="white" stroke="none" points="-4,4 -4,-913.95 1169.83,-913.95 1169.83,4 -4,4"/>
<!-- 9 -->
<g id="node1" class="node">
<title>9</title>
<ellipse fill="none" stroke="black" cx="152.38" cy="-48.98" rx="122.15" ry="19.98"/>
<text text-anchor="middle" x="152.38" y="-45.8" font-family="Times,serif" font-size="14.00">一般微分几何：微分形式</text>
</g>
<!-- 12 -->
<g id="node2" class="node">
<title>12</title>
<ellipse fill="none" stroke="black" cx="462.92" cy="-193.98" rx="122.15" ry="19.98"/>
<text text-anchor="middle" x="462.92" y="-190.8" font-family="Times,serif" font-size="14.00">一般代数几何：仿射概形</text>
</g>
<!-- 5 -->
<g id="node3" class="node">
<title>5</title>
<ellipse fill="none" stroke="black" cx="152.38" cy="-251.98" rx="122.15" ry="19.98"/>
<text text-anchor="middle" x="152.38" y="-248.8" font-family="Times,serif" font-size="14.00">线性代数：外幂和对称幂</text>
</g>
<!-- 2 -->
<g id="node4" class="node">
<title>2</title>
<ellipse fill="none" stroke="black" cx="152.38" cy="-309.98" rx="122.15" ry="19.98"/>
<text text-anchor="middle" x="152.38" y="-306.8" font-family="Times,serif" font-size="14.00">一般代数几何：拓扑概形</text>
</g>
<!-- 0 -->
<g id="node5" class="node">
<title>0</title>
<ellipse fill="none" stroke="black" cx="763.37" cy="-135.98" rx="102" ry="19.98"/>
<text text-anchor="middle" x="763.37" y="-132.8" font-family="Times,serif" font-size="14.00">一般微分几何：李群</text>
</g>
<!-- 1 -->
<g id="node6" class="node">
<title>1</title>
<ellipse fill="none" stroke="black" cx="1053.76" cy="-77.98" rx="112.08" ry="19.98"/>
<text text-anchor="middle" x="1053.76" y="-74.8" font-family="Times,serif" font-size="14.00">一般微分几何：向量丛</text>
</g>
<!-- 7 -->
<g id="node7" class="node">
<title>7</title>
<ellipse fill="none" stroke="black" cx="152.38" cy="-106.98" rx="132.23" ry="19.98"/>
<text text-anchor="middle" x="152.38" y="-103.8" font-family="Times,serif" font-size="14.00">一般微分几何：坐标与流形</text>
</g>
<!-- 7&#45;&gt;12 -->
<g id="edge2" class="edge">
<title>7&#45;&gt;12</title>
<path fill="none" stroke="black" d="M209.27,-125.32C246.37,-137.24 296.26,-152.78 340.76,-164.98 353.02,-168.34 366.04,-171.68 378.82,-174.84"/>
<polygon fill="black" stroke="black" points="377.95,-178.24 388.5,-177.21 379.62,-171.44 377.95,-178.24"/>
</g>
<!-- 3 -->
<g id="node8" class="node">
<title>3</title>
<ellipse fill="none" stroke="black" cx="462.92" cy="-77.98" rx="112.08" ry="19.98"/>
<text text-anchor="middle" x="462.92" y="-74.8" font-family="Times,serif" font-size="14.00">一般微分几何：子流形</text>
</g>
<!-- 7&#45;&gt;3 -->
<g id="edge6" class="edge">
<title>7&#45;&gt;3</title>
<path fill="none" stroke="black" d="M265.64,-96.42C293.58,-93.8 323.51,-90.98 351.37,-88.37"/>
<polygon fill="black" stroke="black" points="351.62,-91.86 361.25,-87.44 350.96,-84.89 351.62,-91.86"/>
</g>
<!-- 3&#45;&gt;0 -->
<g id="edge3" class="edge">
<title>3&#45;&gt;0</title>
<path fill="none" stroke="black" d="M540,-92.76C582.26,-100.97 634.92,-111.21 678.39,-119.65"/>
<polygon fill="black" stroke="black" points="677.54,-123.06 688.03,-121.53 678.88,-116.18 677.54,-123.06"/>
</g>
<!-- 10 -->
<g id="node12" class="node">
<title>10</title>
<ellipse fill="none" stroke="black" cx="763.37" cy="-77.98" rx="112.08" ry="19.98"/>
<text text-anchor="middle" x="763.37" y="-74.8" font-family="Times,serif" font-size="14.00">一般微分几何：纤维丛</text>
</g>
<!-- 3&#45;&gt;10 -->
<g id="edge7" class="edge">
<title>3&#45;&gt;10</title>
<path fill="none" stroke="black" d="M575.47,-77.98C596.39,-77.98 618.35,-77.98 639.58,-77.98"/>
<polygon fill="black" stroke="black" points="639.44,-81.48 649.44,-77.98 639.44,-74.48 639.44,-81.48"/>
</g>
<!-- 18 -->
<g id="node21" class="node">
<title>18</title>
<ellipse fill="none" stroke="black" cx="763.37" cy="-19.98" rx="142.31" ry="19.98"/>
<text text-anchor="middle" x="763.37" y="-16.8" font-family="Times,serif" font-size="14.00">局部微分几何：（余）切空间</text>
</g>
<!-- 3&#45;&gt;18 -->
<g id="edge8" class="edge">
<title>3&#45;&gt;18</title>
<path fill="none" stroke="black" d="M540,-63.19C578.6,-55.69 625.88,-46.5 666.9,-38.53"/>
<polygon fill="black" stroke="black" points="667.38,-42 676.53,-36.66 666.04,-35.13 667.38,-42"/>
</g>
<!-- 8 -->
<g id="node9" class="node">
<title>8</title>
<ellipse fill="none" stroke="black" cx="152.38" cy="-367.98" rx="81.85" ry="19.98"/>
<text text-anchor="middle" x="152.38" y="-364.8" font-family="Times,serif" font-size="14.00">线性代数：张量</text>
</g>
<!-- 11 -->
<g id="node10" class="node">
<title>11</title>
<ellipse fill="none" stroke="black" cx="152.38" cy="-425.98" rx="112.08" ry="19.98"/>
<text text-anchor="middle" x="152.38" y="-422.8" font-family="Times,serif" font-size="14.00">线性代数：复向量空间</text>
</g>
<!-- 15 -->
<g id="node11" class="node">
<title>15</title>
<ellipse fill="none" stroke="black" cx="462.92" cy="-135.98" rx="122.15" ry="19.98"/>
<text text-anchor="middle" x="462.92" y="-132.8" font-family="Times,serif" font-size="14.00">复微分几何：复全纯流形</text>
</g>
<!-- 15&#45;&gt;0 -->
<g id="edge4" class="edge">
<title>15&#45;&gt;0</title>
<path fill="none" stroke="black" d="M585.31,-135.98C606.65,-135.98 628.78,-135.98 649.86,-135.98"/>
<polygon fill="black" stroke="black" points="649.61,-139.48 659.61,-135.98 649.61,-132.48 649.61,-139.48"/>
</g>
<!-- 10&#45;&gt;1 -->
<g id="edge5" class="edge">
<title>10&#45;&gt;1</title>
<path fill="none" stroke="black" d="M875.87,-77.98C893.64,-77.98 912.1,-77.98 930.11,-77.98"/>
<polygon fill="black" stroke="black" points="930.04,-81.48 940.04,-77.98 930.04,-74.48 930.04,-81.48"/>
</g>
<!-- 21 -->
<g id="node13" class="node">
<title>21</title>
<ellipse fill="none" stroke="black" cx="152.38" cy="-483.98" rx="102" ry="19.98"/>
<text text-anchor="middle" x="152.38" y="-480.8" font-family="Times,serif" font-size="14.00">一般代数几何：概形</text>
</g>
<!-- 17 -->
<g id="node14" class="node">
<title>17</title>
<ellipse fill="none" stroke="black" cx="152.38" cy="-541.98" rx="102" ry="19.98"/>
<text text-anchor="middle" x="152.38" y="-538.8" font-family="Times,serif" font-size="14.00">复微分几何：全纯集</text>
</g>
<!-- 6 -->
<g id="node15" class="node">
<title>6</title>
<ellipse fill="none" stroke="black" cx="152.38" cy="-599.98" rx="102" ry="19.98"/>
<text text-anchor="middle" x="152.38" y="-596.8" font-family="Times,serif" font-size="14.00">一般微分几何：积分</text>
</g>
<!-- 4 -->
<g id="node16" class="node">
<title>4</title>
<ellipse fill="none" stroke="black" cx="152.38" cy="-657.98" rx="102" ry="19.98"/>
<text text-anchor="middle" x="152.38" y="-654.8" font-family="Times,serif" font-size="14.00">一般微分几何：联络</text>
</g>
<!-- 14 -->
<g id="node17" class="node">
<title>14</title>
<ellipse fill="none" stroke="black" cx="152.38" cy="-715.98" rx="102" ry="19.98"/>
<text text-anchor="middle" x="152.38" y="-712.8" font-family="Times,serif" font-size="14.00">古典代数几何：切锥</text>
</g>
<!-- 20 -->
<g id="node18" class="node">
<title>20</title>
<ellipse fill="none" stroke="black" cx="152.38" cy="-193.98" rx="112.08" ry="19.98"/>
<text text-anchor="middle" x="152.38" y="-190.8" font-family="Times,serif" font-size="14.00">古典代数几何：代数集</text>
</g>
<!-- 20&#45;&gt;12 -->
<g id="edge1" class="edge">
<title>20&#45;&gt;12</title>
<path fill="none" stroke="black" d="M264.77,-193.98C285.62,-193.98 307.6,-193.98 329.03,-193.98"/>
<polygon fill="black" stroke="black" points="329,-197.48 339,-193.98 329,-190.48 329,-197.48"/>
</g>
<!-- 16 -->
<g id="node19" class="node">
<title>16</title>
<ellipse fill="none" stroke="black" cx="152.38" cy="-773.98" rx="102" ry="19.98"/>
<text text-anchor="middle" x="152.38" y="-770.8" font-family="Times,serif" font-size="14.00">一般代数几何：态射</text>
</g>
<!-- 19 -->
<g id="node20" class="node">
<title>19</title>
<ellipse fill="none" stroke="black" cx="152.38" cy="-831.98" rx="152.38" ry="19.98"/>
<text text-anchor="middle" x="152.38" y="-828.8" font-family="Times,serif" font-size="14.00">一般微分几何：张量场和场张量</text>
</g>
<!-- 13 -->
<g id="node22" class="node">
<title>13</title>
<ellipse fill="none" stroke="black" cx="152.38" cy="-889.98" rx="122.15" ry="19.98"/>
<text text-anchor="middle" x="152.38" y="-886.8" font-family="Times,serif" font-size="14.00">局部代数几何：局部概形</text>
</g>
</g>
</svg>
