<?xml version="1.0" encoding="UTF-8" standalone="no"?>
<!DOCTYPE svg PUBLIC "-//W3C//DTD SVG 1.1//EN"
 "http://www.w3.org/Graphics/SVG/1.1/DTD/svg11.dtd">
<!-- Generated by graphviz version 9.0.0 (20230911.1827)
 -->
<!-- Pages: 1 -->
<svg width="1214pt" height="860pt"
 viewBox="0.00 0.00 1214.14 859.95" xmlns="http://www.w3.org/2000/svg" xmlns:xlink="http://www.w3.org/1999/xlink">
<g id="graph0" class="graph" transform="scale(1 1) rotate(0) translate(4 855.95)">
<polygon fill="white" stroke="none" points="-4,4 -4,-855.95 1210.14,-855.95 1210.14,4 -4,4"/>
<!-- 0 -->
<g id="node1" class="node">
<title>0</title>
<ellipse fill="none" stroke="black" cx="152.38" cy="-19.98" rx="152.38" ry="19.98"/>
<text text-anchor="middle" x="152.38" y="-16.8" font-family="Times,serif" font-size="14.00">一般微分几何：张量场和场张量</text>
</g>
<!-- 1 -->
<g id="node2" class="node">
<title>1</title>
<ellipse fill="none" stroke="black" cx="152.38" cy="-77.98" rx="102" ry="19.98"/>
<text text-anchor="middle" x="152.38" y="-74.8" font-family="Times,serif" font-size="14.00">复微分几何：全纯集</text>
</g>
<!-- 2 -->
<g id="node3" class="node">
<title>2</title>
<ellipse fill="none" stroke="black" cx="152.38" cy="-135.98" rx="122.15" ry="19.98"/>
<text text-anchor="middle" x="152.38" y="-132.8" font-family="Times,serif" font-size="14.00">复微分几何：复全纯流形</text>
</g>
<!-- 3 -->
<g id="node4" class="node">
<title>3</title>
<ellipse fill="none" stroke="black" cx="152.38" cy="-193.98" rx="122.15" ry="19.98"/>
<text text-anchor="middle" x="152.38" y="-190.8" font-family="Times,serif" font-size="14.00">线性代数：外幂和对称幂</text>
</g>
<!-- 4 -->
<g id="node5" class="node">
<title>4</title>
<ellipse fill="none" stroke="black" cx="152.38" cy="-251.98" rx="122.15" ry="19.98"/>
<text text-anchor="middle" x="152.38" y="-248.8" font-family="Times,serif" font-size="14.00">局部代数几何：局部概形</text>
</g>
<!-- 5 -->
<g id="node6" class="node">
<title>5</title>
<ellipse fill="none" stroke="black" cx="1073.91" cy="-396.98" rx="112.08" ry="19.98"/>
<text text-anchor="middle" x="1073.91" y="-393.8" font-family="Times,serif" font-size="14.00">古典代数几何：代数集</text>
</g>
<!-- 6 -->
<g id="node7" class="node">
<title>6</title>
<ellipse fill="none" stroke="black" cx="152.38" cy="-367.98" rx="102" ry="19.98"/>
<text text-anchor="middle" x="152.38" y="-364.8" font-family="Times,serif" font-size="14.00">一般代数几何：概形</text>
</g>
<!-- 7 -->
<g id="node8" class="node">
<title>7</title>
<ellipse fill="none" stroke="black" cx="152.38" cy="-425.98" rx="102" ry="19.98"/>
<text text-anchor="middle" x="152.38" y="-422.8" font-family="Times,serif" font-size="14.00">一般微分几何：联络</text>
</g>
<!-- 8 -->
<g id="node9" class="node">
<title>8</title>
<ellipse fill="none" stroke="black" cx="483.07" cy="-367.98" rx="142.31" ry="19.98"/>
<text text-anchor="middle" x="483.07" y="-364.8" font-family="Times,serif" font-size="14.00">局部微分几何：（余）切空间</text>
</g>
<!-- 12 -->
<g id="node13" class="node">
<title>12</title>
<ellipse fill="none" stroke="black" cx="783.53" cy="-338.98" rx="112.08" ry="19.98"/>
<text text-anchor="middle" x="783.53" y="-335.8" font-family="Times,serif" font-size="14.00">一般微分几何：子流形</text>
</g>
<!-- 8&#45;&gt;12 -->
<g id="edge1" class="edge">
<title>8&#45;&gt;12</title>
<path fill="none" stroke="black" d="M601.6,-356.56C625.15,-354.27 649.8,-351.87 673.07,-349.61"/>
<polygon fill="black" stroke="black" points="673.25,-353.11 682.86,-348.66 672.57,-346.14 673.25,-353.11"/>
</g>
<!-- 9 -->
<g id="node10" class="node">
<title>9</title>
<ellipse fill="none" stroke="black" cx="483.07" cy="-309.98" rx="112.08" ry="19.98"/>
<text text-anchor="middle" x="483.07" y="-306.8" font-family="Times,serif" font-size="14.00">一般微分几何：纤维丛</text>
</g>
<!-- 9&#45;&gt;12 -->
<g id="edge2" class="edge">
<title>9&#45;&gt;12</title>
<path fill="none" stroke="black" d="M582.21,-319.51C611.21,-322.33 643.14,-325.43 672.82,-328.32"/>
<polygon fill="black" stroke="black" points="672.27,-331.78 682.57,-329.26 672.95,-324.81 672.27,-331.78"/>
</g>
<!-- 10 -->
<g id="node11" class="node">
<title>10</title>
<ellipse fill="none" stroke="black" cx="783.53" cy="-396.98" rx="122.15" ry="19.98"/>
<text text-anchor="middle" x="783.53" y="-393.8" font-family="Times,serif" font-size="14.00">一般代数几何：仿射概形</text>
</g>
<!-- 10&#45;&gt;5 -->
<g id="edge3" class="edge">
<title>10&#45;&gt;5</title>
<path fill="none" stroke="black" d="M905.99,-396.98C920.71,-396.98 935.75,-396.98 950.49,-396.98"/>
<polygon fill="black" stroke="black" points="950.17,-400.48 960.17,-396.98 950.17,-393.48 950.17,-400.48"/>
</g>
<!-- 17 -->
<g id="node18" class="node">
<title>17</title>
<ellipse fill="none" stroke="black" cx="1073.91" cy="-338.98" rx="132.23" ry="19.98"/>
<text text-anchor="middle" x="1073.91" y="-335.8" font-family="Times,serif" font-size="14.00">一般微分几何：坐标与流形</text>
</g>
<!-- 10&#45;&gt;17 -->
<g id="edge4" class="edge">
<title>10&#45;&gt;17</title>
<path fill="none" stroke="black" d="M862.19,-381.36C898.93,-373.97 943.06,-365.09 981.42,-357.38"/>
<polygon fill="black" stroke="black" points="982,-360.83 991.11,-355.43 980.62,-353.97 982,-360.83"/>
</g>
<!-- 11 -->
<g id="node12" class="node">
<title>11</title>
<ellipse fill="none" stroke="black" cx="152.38" cy="-483.98" rx="122.15" ry="19.98"/>
<text text-anchor="middle" x="152.38" y="-480.8" font-family="Times,serif" font-size="14.00">一般微分几何：微分形式</text>
</g>
<!-- 12&#45;&gt;17 -->
<g id="edge5" class="edge">
<title>12&#45;&gt;17</title>
<path fill="none" stroke="black" d="M896.02,-338.98C907.2,-338.98 918.65,-338.98 930.09,-338.98"/>
<polygon fill="black" stroke="black" points="930,-342.48 940,-338.98 930,-335.48 930,-342.48"/>
</g>
<!-- 13 -->
<g id="node14" class="node">
<title>13</title>
<ellipse fill="none" stroke="black" cx="152.38" cy="-309.98" rx="112.08" ry="19.98"/>
<text text-anchor="middle" x="152.38" y="-306.8" font-family="Times,serif" font-size="14.00">一般微分几何：向量丛</text>
</g>
<!-- 13&#45;&gt;9 -->
<g id="edge6" class="edge">
<title>13&#45;&gt;9</title>
<path fill="none" stroke="black" d="M264.66,-309.98C295.1,-309.98 328.25,-309.98 359.29,-309.98"/>
<polygon fill="black" stroke="black" points="359.11,-313.48 369.11,-309.98 359.11,-306.48 359.11,-313.48"/>
</g>
<!-- 14 -->
<g id="node15" class="node">
<title>14</title>
<ellipse fill="none" stroke="black" cx="152.38" cy="-541.98" rx="102" ry="19.98"/>
<text text-anchor="middle" x="152.38" y="-538.8" font-family="Times,serif" font-size="14.00">一般微分几何：积分</text>
</g>
<!-- 15 -->
<g id="node16" class="node">
<title>15</title>
<ellipse fill="none" stroke="black" cx="152.38" cy="-599.98" rx="112.08" ry="19.98"/>
<text text-anchor="middle" x="152.38" y="-596.8" font-family="Times,serif" font-size="14.00">线性代数：复向量空间</text>
</g>
<!-- 16 -->
<g id="node17" class="node">
<title>16</title>
<ellipse fill="none" stroke="black" cx="152.38" cy="-657.98" rx="122.15" ry="19.98"/>
<text text-anchor="middle" x="152.38" y="-654.8" font-family="Times,serif" font-size="14.00">一般代数几何：拓扑概形</text>
</g>
<!-- 18 -->
<g id="node19" class="node">
<title>18</title>
<ellipse fill="none" stroke="black" cx="152.38" cy="-715.98" rx="102" ry="19.98"/>
<text text-anchor="middle" x="152.38" y="-712.8" font-family="Times,serif" font-size="14.00">古典代数几何：切锥</text>
</g>
<!-- 19 -->
<g id="node20" class="node">
<title>19</title>
<ellipse fill="none" stroke="black" cx="152.38" cy="-773.98" rx="81.85" ry="19.98"/>
<text text-anchor="middle" x="152.38" y="-770.8" font-family="Times,serif" font-size="14.00">线性代数：张量</text>
</g>
<!-- 20 -->
<g id="node21" class="node">
<title>20</title>
<ellipse fill="none" stroke="black" cx="152.38" cy="-831.98" rx="102" ry="19.98"/>
<text text-anchor="middle" x="152.38" y="-828.8" font-family="Times,serif" font-size="14.00">一般代数几何：态射</text>
</g>
</g>
</svg>
