<?xml version="1.0" encoding="UTF-8" standalone="no"?>
<!DOCTYPE svg PUBLIC "-//W3C//DTD SVG 1.1//EN"
 "http://www.w3.org/Graphics/SVG/1.1/DTD/svg11.dtd">
<!-- Generated by graphviz version 9.0.0 (20230911.1827)
 -->
<!-- Pages: 1 -->
<svg width="853pt" height="48pt"
 viewBox="0.00 0.00 853.22 47.95" xmlns="http://www.w3.org/2000/svg" xmlns:xlink="http://www.w3.org/1999/xlink">
<g id="graph0" class="graph" transform="scale(1 1) rotate(0) translate(4 43.95)">
<polygon fill="white" stroke="none" points="-4,4 -4,-43.95 849.22,-43.95 849.22,4 -4,4"/>
<!-- 0 -->
<g id="node1" class="node">
<title>0</title>
<ellipse fill="none" stroke="black" cx="702.92" cy="-19.98" rx="142.31" ry="19.98"/>
<text text-anchor="middle" x="702.92" y="-16.8" font-family="Times,serif" font-size="14.00">局部微分几何：（余）切空间</text>
</g>
<!-- 1 -->
<g id="node2" class="node">
<title>1</title>
<ellipse fill="none" stroke="black" cx="412.53" cy="-19.98" rx="112.08" ry="19.98"/>
<text text-anchor="middle" x="412.53" y="-16.8" font-family="Times,serif" font-size="14.00">一般微分几何：子流形</text>
</g>
<!-- 1&#45;&gt;0 -->
<g id="edge1" class="edge">
<title>1&#45;&gt;0</title>
<path fill="none" stroke="black" d="M525.03,-19.98C532.89,-19.98 540.9,-19.98 548.93,-19.98"/>
<polygon fill="black" stroke="black" points="548.8,-23.48 558.8,-19.98 548.8,-16.48 548.8,-23.48"/>
</g>
<!-- 15 -->
<g id="node3" class="node">
<title>15</title>
<ellipse fill="none" stroke="black" cx="132.23" cy="-19.98" rx="132.23" ry="19.98"/>
<text text-anchor="middle" x="132.23" y="-16.8" font-family="Times,serif" font-size="14.00">一般微分几何：坐标与流形</text>
</g>
<!-- 15&#45;&gt;1 -->
<g id="edge2" class="edge">
<title>15&#45;&gt;1</title>
<path fill="none" stroke="black" d="M264.64,-19.98C272.67,-19.98 280.74,-19.98 288.74,-19.98"/>
<polygon fill="black" stroke="black" points="288.47,-23.48 298.47,-19.98 288.47,-16.48 288.47,-23.48"/>
</g>
</g>
</svg>
